<?xml version="1.0" standalone="no"?>
<!DOCTYPE svg PUBLIC "-//W3C//DTD SVG 20010904//EN"
 "http://www.w3.org/TR/2001/REC-SVG-20010904/DTD/svg10.dtd">
<svg version="1.0" xmlns="http://www.w3.org/2000/svg"
 width="1280.000000pt" height="1228.000000pt" viewBox="0 0 1280.000000 1228.000000"
 preserveAspectRatio="xMidYMid meet">
<metadata>
Created by potrace 1.15, written by Peter Selinger 2001-2017
</metadata>
<g transform="translate(0.000000,1228.000000) scale(0.100000,-0.100000)"
fill="#b12525" stroke="none">
<path d="M10340 12262 c-48 -56 -300 -258 -462 -369 -307 -212 -721 -416
-1158 -572 -188 -66 -556 -174 -755 -221 -49 -12 -144 -34 -210 -50 -66 -16
-137 -32 -158 -35 -20 -4 -39 -11 -42 -15 -4 -6 47 -201 251 -950 31 -113 98
-362 150 -555 87 -326 133 -496 204 -755 16 -58 42 -154 58 -215 17 -60 39
-144 50 -185 26 -94 135 -496 207 -765 7 -27 31 -117 54 -200 22 -82 88 -325
146 -540 58 -214 113 -412 121 -440 8 -27 10 -45 5 -40 -5 6 -574 1281 -1265
2834 -690 1553 -1260 2829 -1266 2835 -16 16 -940 15 -1145 -2 -281 -22 -573
-55 -686 -77 -11 -2 -78 -14 -147 -25 -927 -157 -1886 -540 -2622 -1048 -220
-152 -584 -438 -631 -495 -19 -23 -44 48 226 -637 104 -261 207 -524 230 -585
24 -60 81 -207 128 -325 47 -118 105 -267 130 -330 25 -63 83 -212 130 -330
115 -292 210 -532 264 -670 25 -63 73 -187 108 -275 35 -88 102 -259 150 -380
47 -121 135 -344 195 -495 59 -151 134 -340 165 -420 79 -202 188 -477 315
-800 60 -151 148 -374 195 -495 48 -121 116 -294 152 -385 36 -91 75 -192 88
-225 13 -33 63 -159 110 -280 195 -493 238 -603 311 -788 41 -105 93 -238 116
-295 22 -56 44 -102 49 -102 5 0 9 4 9 8 0 13 201 256 329 397 138 152 434
446 606 602 623 563 1469 1172 2185 1571 25 14 79 44 120 67 41 23 162 86 269
140 699 349 1177 476 1404 372 266 -122 113 -561 -414 -1187 -111 -131 -258
-287 -237 -250 8 14 42 70 75 126 76 125 130 227 170 324 51 123 60 151 74
233 42 248 -108 337 -414 248 -261 -76 -593 -255 -882 -475 -124 -95 -328
-275 -349 -308 -13 -21 4 -60 79 -172 118 -179 283 -310 495 -391 366 -142
816 -151 1420 -29 608 123 1409 445 2090 841 727 423 1313 915 1596 1339 41
61 74 116 74 121 0 6 -34 96 -75 200 -41 103 -157 397 -258 653 -214 538 -294
742 -442 1115 -247 624 -280 707 -340 860 -35 88 -142 358 -238 600 -96 242
-201 505 -232 585 -61 153 -301 760 -562 1420 -252 635 -280 704 -289 707 -5
1 -16 -5 -24 -15z"/>
<path d="M286 10365 c-153 -68 -280 -126 -283 -129 -5 -5 15 -65 117 -356 34
-96 79 -224 100 -285 20 -60 68 -195 104 -300 37 -104 85 -239 106 -300 21
-60 66 -189 100 -285 34 -96 95 -269 135 -385 40 -115 101 -289 135 -385 34
-96 78 -224 99 -285 21 -60 121 -344 221 -630 100 -286 208 -594 240 -685 178
-507 359 -1024 407 -1160 30 -85 63 -180 73 -210 10 -30 43 -125 73 -210 30
-85 121 -344 202 -575 81 -231 174 -496 207 -590 33 -93 68 -195 78 -225 10
-30 44 -127 75 -215 57 -160 116 -328 260 -740 42 -121 94 -269 115 -330 22
-60 64 -182 95 -270 31 -88 71 -203 89 -255 19 -52 52 -147 74 -210 22 -63 72
-205 110 -315 39 -110 89 -254 112 -320 43 -124 88 -252 170 -485 27 -74 54
-153 60 -175 7 -22 16 -44 20 -48 10 -11 951 363 957 380 3 7 -11 52 -30 100
-19 49 -67 169 -105 268 -39 99 -104 266 -145 370 -41 105 -101 255 -132 335
-75 190 -156 397 -212 540 -25 63 -65 167 -90 230 -195 496 -248 631 -318 810
-20 52 -75 192 -122 310 -47 118 -110 278 -140 355 -30 77 -65 167 -78 200
-47 121 -218 556 -306 780 -106 270 -141 359 -202 515 -25 63 -79 201 -120
305 -41 105 -92 233 -112 285 -20 52 -75 192 -122 310 -81 205 -131 333 -245
625 -28 72 -100 254 -160 405 -60 151 -121 309 -137 350 -16 41 -74 190 -130
330 -55 140 -130 332 -166 425 -37 94 -105 267 -152 385 -84 216 -149 380
-306 780 -46 118 -137 348 -200 510 -64 162 -141 358 -171 435 -29 76 -58 140
-62 142 -5 1 -134 -54 -288 -122z"/>
</g>
</svg>
